<svg width="1010" height="1040" viewBox="0 0 1010 1040" fill="none" xmlns="http://www.w3.org/2000/svg">
<path d="M756.5 185.5C646.41 106.137 441.375 164.278 296.704 336.363C157.709 501.696 127.362 720.689 201.5 831M773.001 203C851.624 312.132 821.428 530.378 680.44 698.082C536.186 869.672 327.266 925.789 217 847.5" stroke="#EBE7F5" stroke-width="2" stroke-miterlimit="3.74669"/>
<path d="M772.5 202.5C879.248 312.759 875.056 563.483 703.846 729.241C547.594 880.518 332.628 923.609 217.5 847.5M201.5 831C94.7523 720.741 146.068 495.717 317.279 329.959C453.455 198.119 638.748 147.69 756.5 186" stroke="#EBE7F5" stroke-width="2"/>
<path d="M772.621 185.875L772.745 186.509L773.374 186.656L808.346 194.827L773.114 201.791L772.48 201.916L772.334 202.546L764.194 237.636L757.267 202.286L757.142 201.652L756.513 201.505L721.541 193.334L756.773 186.371L757.407 186.245L757.554 185.616L765.693 150.526L772.621 185.875Z" stroke="#EBE7F5" stroke-width="2"/>
<path d="M217.091 831.029L217.215 831.663L217.844 831.81L252.816 839.981L217.584 846.945L216.95 847.07L216.804 847.7L208.664 882.79L201.737 847.44L201.612 846.806L200.983 846.659L166.011 838.488L201.243 831.525L201.877 831.399L202.024 830.77L210.163 795.68L217.091 831.029Z" stroke="#EBE7F5" stroke-width="2"/>
</svg>
