<svg width="120" height="112" viewBox="0 0 120 112" fill="none" xmlns="http://www.w3.org/2000/svg">
<path fill-rule="evenodd" clip-rule="evenodd" d="M77.2064 0.0881426C77.6261 -0.0162046 78.0635 -0.0280577 78.4882 0.0534045L102.92 4.73944C103.734 4.89566 104.447 5.38389 104.887 6.08698L119.546 29.5171C119.921 30.1164 120.071 30.8294 119.969 31.5289L114.105 71.8288C113.959 72.8317 113.314 73.6919 112.392 74.1129L30.3024 111.601C29.5597 111.94 28.7103 111.96 27.9525 111.656C27.1946 111.352 26.5945 110.751 26.2921 109.992L0.88329 46.2623C0.500685 45.3027 0.641819 44.2134 1.25636 43.3829L22.7561 14.3295C23.1684 13.7724 23.7617 13.3763 24.4343 13.209L77.2064 0.0881426ZM78.009 6.03669L44.1261 14.4611L77.3245 16.8194L93.1307 8.93707L78.009 6.03669ZM101.265 11.5476L86.1128 19.104L110.357 26.0791L101.265 11.5476ZM110.971 32.4641L79.3939 23.3794L39.9229 95.3004L110.971 32.4641ZM31.5936 98.0762L73.0712 22.4988L28.2753 19.3166L31.5936 98.0762ZM22.529 24.6666L7.0409 45.5963L25.345 91.5065L22.529 24.6666ZM46.0407 97.8548L108.435 69.361L112.892 38.7301L46.0407 97.8548Z" fill="#FAF9E5"/>
</svg>
