<svg width="600" height="179" viewBox="0 0 600 179" fill="none" xmlns="http://www.w3.org/2000/svg">
<path d="M460.395 64.9782C461.793 65.7862 462.492 67.4953 462.492 70.1057C462.492 72.716 462.306 74.4406 461.933 75.2797C461.56 76.1187 460.83 76.5382 459.742 76.5382C458.002 76.5382 456.122 75.2797 454.102 72.7626C452.113 70.2455 449.596 68.9869 446.551 68.9869C444.81 68.9869 443.428 69.4375 442.402 70.3387C441.377 71.2399 440.864 72.2343 440.864 73.3219C440.864 75.1865 441.765 76.7402 443.567 77.9832C444.438 78.5736 447.219 79.8633 451.911 81.8521C456.635 83.8098 460.006 85.8452 462.026 87.9584C464.077 90.0404 465.103 92.8838 465.103 96.4885C465.103 100.093 463.564 103.232 460.488 105.904C457.411 108.577 453.465 109.913 448.648 109.913H446.178C440.149 109.913 435.628 109.198 432.613 107.769C430.5 106.774 429.444 104.413 429.444 100.684C429.444 96.9546 430.143 95.0901 431.541 95.0901C433.313 95.0901 435.503 96.5351 438.114 99.4251C440.755 102.315 443.614 103.76 446.69 103.76C448.555 103.76 450.124 103.372 451.398 102.595C452.704 101.787 453.356 100.544 453.356 98.8658C453.356 97.1566 452.455 95.6339 450.653 94.2977C449.689 93.583 447.079 92.3244 442.822 90.5221C438.595 88.6886 435.581 86.9173 433.779 85.2082C431.075 82.66 429.723 79.537 429.723 75.839C429.723 72.11 431.308 69.0336 434.478 66.6097C437.648 64.1548 441.346 62.9273 445.572 62.9273H446.83C453.48 62.9273 458.002 63.6109 460.395 64.9782Z" fill="#FAF9E5"/>
<path d="M423.058 105.625C423.058 106.774 422.11 107.629 420.214 108.188C418.35 108.717 415.196 108.981 410.752 108.981C406.339 108.981 403.698 108.67 402.828 108.048C401.958 107.427 401.523 106.697 401.523 105.858C401.523 104.988 401.911 103.682 402.688 101.942C403.496 100.202 403.993 98.8036 404.18 97.747C404.366 96.6905 404.459 93.1168 404.459 87.0261C404.459 80.9354 403.931 76.7868 402.874 74.5805C401.849 72.3431 399.814 71.2244 396.768 71.2244C393.723 71.2244 391.252 72.5451 389.357 75.1865C388.083 76.9577 387.446 80.2051 387.446 84.9285C387.446 92.7284 388.16 98.4462 389.59 102.082C390.46 104.195 390.895 105.562 390.895 106.184C390.895 107.365 390.18 108.111 388.751 108.421C387.321 108.701 384.214 108.841 379.428 108.841C374.674 108.841 371.799 108.53 370.805 107.909C369.81 107.256 369.313 106.386 369.313 105.298C369.313 104.211 370.137 103.123 371.784 102.035C373.431 100.948 374.363 99.9689 374.58 99.0988C374.798 98.1976 374.907 94.2511 374.907 87.2592C374.907 80.2362 374.674 76.1342 374.208 74.9534C373.741 73.7415 372.809 72.3431 371.411 70.7582C370.012 69.1734 369.313 68.3654 369.313 68.3344V67.3555C369.313 66.8272 369.702 66.3456 370.479 65.9105C373.182 64.3567 377.206 63.5799 382.551 63.5799C384.043 63.5799 385.286 64.3101 386.28 65.7707C387.306 67.2312 388.052 67.9615 388.518 67.9615C388.984 67.9615 390.071 67.4643 391.781 66.4699C393.521 65.4444 394.469 64.9006 394.624 64.8384C397.11 63.6886 399.425 63.1137 401.569 63.1137H403.061C408.499 63.1137 412.383 65.289 414.714 69.6395C416.206 72.4674 416.952 79.2573 416.952 90.0093C416.952 95.7582 417.138 99.0367 417.511 99.8446C417.884 100.653 418.894 101.585 420.541 102.641C422.219 103.667 423.058 104.661 423.058 105.625Z" fill="#FAF9E5"/>
<path d="M342.791 69.1268H341.439C339.481 69.1268 337.601 70.1523 335.799 72.2032C334.027 74.2231 333.142 76.647 333.142 79.4748V80.2206C333.142 81.3704 333.779 81.9453 335.053 81.9453L335.519 82.0385H338.828L339.062 81.9919L346.846 81.5258C347.312 81.4326 347.623 81.386 347.778 81.386C349.363 81.386 350.155 80.5625 350.155 78.9155V77.3773C350.155 75.2952 349.41 73.3996 347.918 71.6905C346.426 69.9814 344.717 69.1268 342.791 69.1268ZM333.701 91.3145C333.701 94.422 335.162 97.11 338.083 99.3785C340.258 101.088 343.024 101.942 346.38 101.942C347.902 101.942 350.155 101.507 353.139 100.637C356.153 99.7669 357.893 99.3319 358.359 99.3319C359.758 99.3319 360.457 100.093 360.457 101.616C360.457 103.418 358.592 105.252 354.863 107.116C351.165 108.95 347.328 109.866 343.35 109.866H341.299C341.237 109.866 341.159 109.866 341.066 109.866C338.549 109.866 335.985 109.354 333.375 108.328C328.216 106.339 324.549 102.859 322.374 97.8869C320.883 94.4686 320.137 91.2213 320.137 88.1448V86.0006C320.137 82.862 320.681 79.8322 321.768 76.9111C323.819 71.4108 327.439 67.4487 332.629 65.0249C335.736 63.5954 338.999 62.8807 342.418 62.8807H343.49C348.555 62.8807 352.828 64.45 356.308 67.5886C358.142 69.2666 359.54 71.2865 360.503 73.6482C361.498 76.0099 361.995 78.4183 361.995 80.8732C361.995 83.2971 360.799 84.8975 358.406 85.6743C355.05 86.762 348.835 87.3058 339.761 87.3058C337.337 87.3058 335.721 87.6165 334.913 88.238C334.105 88.8285 333.701 89.8539 333.701 91.3145Z" fill="#FAF9E5"/>
<path d="M291.05 46.9391C291.05 47.3431 290.087 48.6327 288.16 50.808C286.265 52.9521 285.131 54.77 284.758 56.2617C284.416 57.7533 284.245 64.885 284.245 77.6569C284.245 90.3978 284.416 97.4363 284.758 98.7725C285.131 100.109 285.892 101.025 287.042 101.523C288.191 101.989 290.165 102.222 292.961 102.222C295.758 102.222 298.198 101.709 300.28 100.684C302.393 99.6582 304.661 97.8247 307.085 95.1833C309.509 92.542 311.591 91.2213 313.331 91.2213C314.667 91.2213 315.336 92.0603 315.336 93.7383V94.9503C315.336 97.2809 314.963 99.8757 314.217 102.735C313.471 105.562 312.881 107.178 312.446 107.582C311.482 108.484 309.152 108.934 305.454 108.934H280.423C272.25 108.934 267.728 108.856 266.858 108.701C265.367 108.421 264.621 107.582 264.621 106.184C264.621 105.438 265.444 104.242 267.091 102.595C268.738 100.948 269.873 98.8036 270.494 96.1622C270.743 95.1057 270.867 88.1448 270.867 75.2797C270.867 62.4145 270.681 55.3605 270.308 54.1175C269.935 52.8745 268.738 51.6159 266.718 50.3418C264.699 49.0677 263.689 47.6383 263.689 46.0534C263.689 44.7794 266.718 44.1423 272.778 44.1423H285.131C287.554 44.1423 289.139 44.3288 289.885 44.7017C290.662 45.0435 291.05 45.7893 291.05 46.9391Z" fill="#FAF9E5"/>
<path d="M257.629 104.599C257.629 107.489 253.511 108.934 245.277 108.934C242.573 108.934 240.709 108.623 239.683 108.002C238.658 107.349 238.145 106.231 238.145 104.646L238.751 101.663C239.341 98.5239 239.636 93.7539 239.636 87.3524C239.636 80.9198 239.093 76.6625 238.005 74.5805C236.917 72.4674 234.773 71.4108 231.572 71.4108C230.485 71.4108 229.304 71.8459 228.03 72.716C226.756 73.555 225.792 74.7048 225.14 76.1653C224.518 77.6259 224.208 81.4015 224.208 87.4922C224.208 93.5519 224.378 97.1566 224.72 98.3064C225.093 99.4562 225.901 100.855 227.144 102.502C228.387 104.117 229.009 105.392 229.009 106.324C229.009 107.225 228.403 107.878 227.191 108.282C226.01 108.686 222.871 108.888 217.775 108.888C212.679 108.888 209.727 108.623 208.919 108.095C208.142 107.567 207.753 106.603 207.753 105.205C207.753 104.739 208.266 103.838 209.291 102.502C210.348 101.134 211.016 99.8912 211.296 98.7725C211.607 97.6538 211.762 94.0646 211.762 88.005C211.762 81.9453 211.265 77.7346 210.27 75.3729C209.276 73.0112 207.458 71.8303 204.817 71.8303C202.175 71.8303 199.938 73.0423 198.104 75.4661C196.83 77.1442 196.193 79.4748 196.193 82.458C196.193 85.4413 196.333 88.9217 196.613 92.8993C196.892 96.8769 197.203 99.6737 197.545 101.29C197.887 102.906 198.058 104.273 198.058 105.392C198.058 106.51 197.561 107.38 196.566 108.002C195.572 108.592 193.21 108.888 189.481 108.888C182.272 108.888 178.667 107.582 178.667 104.972C178.667 104.133 179.366 102.937 180.764 101.383C182.163 99.798 182.955 98.6638 183.142 97.9801C183.328 97.2654 183.421 93.8471 183.421 87.7253C183.421 81.6035 183.017 77.3773 182.209 75.0466C181.992 74.4562 181.37 73.3686 180.345 71.7837C179.351 70.1678 178.853 68.9403 178.853 68.1013C178.853 66.9204 179.848 66.0348 181.837 65.4444C185.379 64.3878 188.533 63.8595 191.299 63.8595C192.2 63.8595 193.288 64.5277 194.562 65.8639C195.836 67.1691 196.644 67.8216 196.986 67.8216L198.477 66.9826C200.311 65.926 201.492 65.2735 202.02 65.0249C204.879 63.7197 207.582 63.0671 210.131 63.0671C212.679 63.0671 214.574 63.3468 215.817 63.9062C217.06 64.4655 218.412 65.2735 219.873 66.33C221.333 67.3866 222.421 67.9149 223.135 67.9149C223.881 67.9149 225.901 67.1535 229.195 65.6308C232.489 64.1081 235.566 63.3468 238.424 63.3468C243.583 63.3468 247.374 65.6308 249.798 70.1989C251.414 73.1821 252.222 81.0597 252.222 93.8316C252.222 97.0634 252.393 99.0522 252.735 99.798C253.108 100.513 254.009 101.383 255.438 102.408C256.899 103.403 257.629 104.133 257.629 104.599Z" fill="#FAF9E5"/>
<path d="M166.361 64.9782C167.759 65.7862 168.459 67.4953 168.459 70.1057C168.459 72.716 168.272 74.4406 167.899 75.2797C167.526 76.1187 166.796 76.5382 165.709 76.5382C163.968 76.5382 162.088 75.2797 160.068 72.7626C158.08 70.2455 155.562 68.9869 152.517 68.9869C150.777 68.9869 149.394 69.4375 148.369 70.3387C147.343 71.2399 146.83 72.2343 146.83 73.3219C146.83 75.1865 147.732 76.7402 149.534 77.9832C150.404 78.5736 153.185 79.8633 157.878 81.8521C162.601 83.8098 165.973 85.8452 167.993 87.9584C170.043 90.0404 171.069 92.8838 171.069 96.4885C171.069 100.093 169.531 103.232 166.454 105.904C163.378 108.577 159.431 109.913 154.615 109.913H152.144C146.116 109.913 141.594 109.198 138.58 107.769C136.467 106.774 135.41 104.413 135.41 100.684C135.41 96.9546 136.109 95.0901 137.508 95.0901C139.279 95.0901 141.47 96.5351 144.08 99.4251C146.722 102.315 149.58 103.76 152.657 103.76C154.521 103.76 156.091 103.372 157.365 102.595C158.67 101.787 159.323 100.544 159.323 98.8658C159.323 97.1566 158.421 95.6339 156.619 94.2977C155.656 93.583 153.045 92.3244 148.788 90.5221C144.562 88.6886 141.548 86.9173 139.745 85.2082C137.042 82.66 135.69 79.537 135.69 75.839C135.69 72.11 137.275 69.0336 140.444 66.6097C143.614 64.1548 147.312 62.9273 151.538 62.9273H152.797C159.447 62.9273 163.968 63.6109 166.361 64.9782Z" fill="#FAF9E5"/>
<path d="M107.769 48.4307C107.769 46.6283 108.468 45.1057 109.866 43.8626C111.296 42.6196 112.834 41.9981 114.481 41.9981H115.973C116.439 42.0914 116.827 42.138 117.138 42.138C118.63 42.138 119.95 42.8061 121.1 44.1423C122.25 45.4786 122.825 46.7526 122.825 47.9646V49.1765C122.763 49.4873 122.732 49.7203 122.732 49.8757C122.732 51.1809 122.001 52.4549 120.541 53.6979C119.08 54.941 117.464 55.5625 115.693 55.5625H114.248C112.508 55.5625 111.001 55.0186 109.727 53.931C108.484 52.8123 107.862 51.5382 107.862 50.1088L107.769 49.6426V48.4307ZM116.625 109.074H112.197C108.064 109.074 105.578 108.965 104.739 108.748C103.931 108.499 103.527 107.831 103.527 106.743C103.527 105.625 104.304 104.288 105.858 102.735C107.411 101.181 108.39 99.6271 108.794 98.0733C109.198 96.4885 109.4 92.4021 109.4 85.8142C109.4 79.1952 109.229 75.2952 108.888 74.1144C108.546 72.9335 107.474 71.9236 105.671 71.0845C103.9 70.2144 103.014 69.1889 103.014 68.0081C103.014 66.7961 103.838 65.9105 105.485 65.3511C109.214 64.1081 113.331 63.4866 117.837 63.4866H118.536C120.339 63.4866 121.38 64.248 121.659 65.7707C121.815 66.6408 121.892 71.8614 121.892 81.4326C121.892 90.9727 122.094 96.5662 122.498 98.2132C122.934 99.8291 124.021 101.554 125.761 103.387C127.502 105.221 128.372 106.37 128.372 106.837V107.396C128.372 108.515 124.456 109.074 116.625 109.074Z" fill="#FAF9E5"/>
<path d="M80.9198 68.1945C84.5245 65.7085 87.601 64.4655 90.1492 64.4655C92.6973 64.4655 94.422 65.0093 95.3232 66.097C96.2554 67.1846 96.7216 68.4897 96.7216 70.0124C96.7216 71.5351 96.302 72.9024 95.463 74.1144C94.6551 75.2952 93.7228 75.8856 92.6662 75.8856C91.6408 75.8856 90.2113 75.4817 88.3779 74.6737C86.5444 73.8658 85.1305 73.4618 84.1361 73.4618C83.1417 73.4618 82.023 73.9901 80.78 75.0466C79.537 76.1032 78.6669 77.6103 78.1697 79.5681C77.7035 81.5258 77.4705 84.6022 77.4705 88.7974C77.4705 92.9615 77.7657 95.665 78.3561 96.908C78.9465 98.12 80.1585 99.7203 81.9919 101.709C83.8254 103.698 84.7421 105.329 84.7421 106.603C84.7421 108.095 81.1373 108.841 73.9279 108.841H69.9192L68.9403 108.794C68.2878 108.763 67.6196 108.748 66.936 108.748L65.9571 108.701C65.3045 108.67 64.6209 108.654 63.9061 108.654C60.6433 108.654 59.0118 107.955 59.0118 106.557C59.0118 105.158 59.8198 103.745 61.4357 102.315C63.0827 100.886 64.0771 99.596 64.4189 98.4462C64.7918 97.2965 64.9782 93.3499 64.9782 86.6066C64.9782 79.8633 64.7607 75.8235 64.3257 74.4873C63.9217 73.151 62.9117 72.0168 61.2958 71.0845C59.711 70.1212 58.9186 69.1268 58.9186 68.1013C58.9186 66.6718 59.9907 65.6619 62.1349 65.0715C65.3667 64.2014 68.2878 63.7663 70.8981 63.7663C73.5084 63.7663 75.2641 64.0615 76.1653 64.652C76.5382 64.9006 76.9577 65.693 77.4239 67.0292C77.9211 68.3654 78.496 69.0336 79.1485 69.0336C79.4282 69.0336 80.0186 68.7539 80.9198 68.1945Z" fill="#FAF9E5"/>
<path d="M19.0646 73.8813C19.0646 75.6526 19.3754 76.8645 19.9969 77.5171C20.6495 78.1386 22.0789 78.4493 24.2853 78.4493H26.5227C29.7234 78.4493 32.3337 77.2529 34.3536 74.8602C36.3735 72.4674 37.3835 69.0802 37.3835 64.6986L37.3369 64.2324C37.3369 59.8198 36.1871 56.3549 33.8875 53.8378C31.5879 51.3207 28.6669 50.0621 25.1243 50.0621H23.959C21.3487 50.0621 19.8104 50.6992 19.3443 51.9733C19.1889 52.3773 19.1112 54.7234 19.1112 59.0118V66.097L19.0646 67.8682V73.8813ZM0 106.557C0 104.413 0.916719 102.719 2.75016 101.476C4.58359 100.202 5.64015 98.7881 5.91983 97.2343C6.35488 94.7794 6.57241 87.7719 6.57241 76.2119C6.57241 64.652 6.29273 57.7222 5.73337 55.4226C5.17402 53.092 4.3816 51.4916 3.35612 50.6215C1.11871 48.757 0 47.5451 0 46.9857V46.2399C0 44.9658 1.16532 44.1579 3.49596 43.816C4.14854 43.7228 7.45805 43.6762 13.4245 43.6762L19.5774 43.583H20.7893L24.4717 43.7228H28.2007C39.2014 43.7228 46.5351 47.1255 50.202 53.931C51.6004 56.5413 52.2996 59.307 52.2996 62.2281V63.5332C52.2996 68.7539 50.3884 73.1666 46.5662 76.7713C42.7439 80.3449 37.3524 82.4425 30.3915 83.064C26.2896 83.4369 23.9745 83.7477 23.4462 83.9963C21.3642 84.9285 20.3232 88.3934 20.3232 94.3909C20.3232 97.1566 21.2865 99.3163 23.2132 100.87C25.7924 102.952 27.082 104.708 27.082 106.137C27.082 107.256 25.8856 108.033 23.4929 108.468C21.1311 108.903 17.6973 109.121 13.1914 109.121C4.39714 109.121 0 108.266 0 106.557Z" fill="#FAF9E5"/>
<path d="M591.957 160.665H592.33C593.247 160.665 594.086 161.007 594.847 161.69C595.624 162.358 596.013 163.205 596.013 164.231V164.464C596.013 165.396 595.64 166.235 594.894 166.981C594.164 167.711 593.27 168.076 592.214 168.076H591.957L591.818 168.053C590.777 168.053 589.899 167.703 589.184 167.004C588.485 166.289 588.135 165.466 588.135 164.534V164.277C588.135 163.36 588.508 162.529 589.254 161.783C590 161.038 590.901 160.665 591.957 160.665Z" fill="#FAF9E5"/>
<path d="M573.988 147.567H573.312C572.333 147.567 571.393 148.079 570.492 149.105C569.607 150.115 569.164 151.327 569.164 152.741V153.113C569.164 153.688 569.482 153.976 570.119 153.976L570.352 154.022H572.007L572.124 153.999L576.016 153.766C576.249 153.719 576.404 153.696 576.482 153.696C577.274 153.696 577.671 153.284 577.671 152.461V151.692C577.671 150.651 577.298 149.703 576.552 148.848C575.806 147.994 574.951 147.567 573.988 147.567ZM569.443 158.66C569.443 160.214 570.174 161.558 571.634 162.692C572.722 163.547 574.105 163.974 575.783 163.974C576.544 163.974 577.671 163.757 579.162 163.322C580.669 162.887 581.539 162.669 581.773 162.669C582.472 162.669 582.821 163.05 582.821 163.811C582.821 164.712 581.889 165.629 580.025 166.561C578.176 167.478 576.257 167.936 574.268 167.936H573.242C573.211 167.936 573.172 167.936 573.126 167.936C571.867 167.936 570.585 167.68 569.28 167.167C566.701 166.173 564.868 164.433 563.78 161.947C563.034 160.237 562.661 158.614 562.661 157.076V156.003C562.661 154.434 562.933 152.919 563.477 151.459C564.502 148.709 566.313 146.727 568.907 145.516C570.461 144.801 572.093 144.443 573.802 144.443H574.338C576.87 144.443 579.007 145.228 580.747 146.797C581.664 147.636 582.363 148.646 582.845 149.827C583.342 151.008 583.59 152.212 583.59 153.44C583.59 154.652 582.992 155.452 581.796 155.84C580.118 156.384 577.01 156.656 572.473 156.656C571.261 156.656 570.453 156.811 570.049 157.122C569.645 157.417 569.443 157.93 569.443 158.66Z" fill="#FAF9E5"/>
<path d="M552.243 146.075C552.243 145.345 553.999 144.979 557.511 144.979C559.67 144.979 560.75 145.422 560.75 146.308C560.75 146.898 560.292 147.613 559.375 148.452C558.458 149.276 557.767 150.154 557.301 151.086C557.285 151.117 556.283 153.556 554.294 158.404C552.305 163.221 551.047 166.002 550.519 166.748C549.99 167.493 549.198 167.866 548.141 167.866C547.085 167.866 546.269 167.447 545.694 166.608C545.119 165.769 543.915 163.081 542.082 158.544C540.248 154.007 539.122 151.342 538.702 150.55C538.283 149.757 537.584 148.957 536.605 148.149C535.641 147.326 535.16 146.712 535.16 146.308V145.865C535.16 145.275 537.226 144.979 541.359 144.979L542.501 144.956C544.117 144.956 545.127 145.057 545.531 145.259C545.935 145.461 546.137 145.787 546.137 146.238C546.137 146.673 546.021 147.1 545.787 147.52C545.554 147.924 545.438 148.398 545.438 148.942C545.438 150.93 546.471 154.248 548.538 158.893C548.973 159.857 549.276 160.338 549.447 160.338C549.617 160.338 549.913 159.841 550.332 158.847C552.259 154.279 553.222 151.125 553.222 149.384C553.222 148.903 553.059 148.336 552.733 147.683C552.406 147.03 552.243 146.494 552.243 146.075Z" fill="#FAF9E5"/>
<path d="M522.947 137.218C522.947 136.317 523.297 135.556 523.996 134.934C524.711 134.313 525.48 134.002 526.303 134.002H527.049C527.282 134.049 527.476 134.072 527.632 134.072C528.378 134.072 529.038 134.406 529.613 135.074C530.188 135.742 530.475 136.379 530.475 136.985V137.591C530.444 137.747 530.429 137.863 530.429 137.941C530.429 138.594 530.063 139.231 529.333 139.852C528.603 140.474 527.795 140.784 526.909 140.784H526.187C525.317 140.784 524.563 140.512 523.926 139.969C523.305 139.409 522.994 138.772 522.994 138.057L522.947 137.824V137.218ZM527.375 167.54H525.161C523.095 167.54 521.852 167.486 521.432 167.377C521.028 167.253 520.826 166.919 520.826 166.375C520.826 165.815 521.215 165.147 521.992 164.37C522.769 163.594 523.258 162.817 523.46 162.04C523.662 161.247 523.763 159.204 523.763 155.91C523.763 152.601 523.677 150.651 523.507 150.06C523.336 149.47 522.8 148.965 521.898 148.545C521.013 148.11 520.57 147.598 520.57 147.007C520.57 146.401 520.982 145.958 521.805 145.679C523.67 145.057 525.728 144.746 527.981 144.746H528.331C529.232 144.746 529.753 145.127 529.893 145.888C529.97 146.323 530.009 148.934 530.009 153.719C530.009 158.489 530.11 161.286 530.312 162.11C530.53 162.918 531.073 163.78 531.943 164.697C532.814 165.613 533.249 166.188 533.249 166.421V166.701C533.249 167.26 531.291 167.54 527.375 167.54Z" fill="#FAF9E5"/>
<path d="M502.321 148.103C501.637 147.636 501.296 147.186 501.296 146.751C501.296 146.3 501.707 145.857 502.531 145.422C503.354 144.987 503.867 144.638 504.069 144.374C504.271 144.109 504.59 143.379 505.025 142.183C505.475 140.986 505.949 140.07 506.446 139.433C506.943 138.78 507.596 138.454 508.404 138.454C509.212 138.454 509.795 138.78 510.152 139.433C510.307 139.728 510.509 140.427 510.758 141.53C511.022 142.633 511.333 143.34 511.69 143.651C512.048 143.962 512.731 144.311 513.741 144.7C514.751 145.073 515.272 145.267 515.303 145.282C515.831 145.702 516.095 146.199 516.095 146.774C516.095 147.271 515.357 147.714 513.881 148.103C512.42 148.491 511.48 149.081 511.061 149.874C510.657 150.666 510.455 152.647 510.455 155.817C510.455 158.987 510.696 161.045 511.177 161.993C511.675 162.941 512.483 163.415 513.601 163.415L514.44 163.345C514.813 163.314 515.217 163.298 515.652 163.298C516.6 163.298 517.074 163.656 517.074 164.37C517.074 165.287 516.499 166.017 515.349 166.561C513.702 167.338 511.962 167.727 510.129 167.727C509.274 167.727 508.42 167.493 507.565 167.027C506.71 166.561 506.058 165.994 505.607 165.326C504.722 164.021 504.279 162.156 504.279 159.732L504.255 159.243C504.24 158.901 504.232 158.521 504.232 158.101V156.726C504.232 154.038 504.015 151.746 503.58 149.851C503.424 149.151 503.005 148.569 502.321 148.103Z" fill="#FAF9E5"/>
<path d="M497.1 162.483C497.706 162.483 498.009 162.902 498.009 163.741C498.009 164.565 497.03 165.466 495.073 166.445C493.115 167.424 491.204 167.913 489.339 167.913H488.803C487.265 167.913 485.805 167.61 484.422 167.004C481.718 165.823 479.854 163.811 478.828 160.968C478.331 159.569 478.082 158.179 478.082 156.796V156.236C478.082 153.098 479.116 150.379 481.182 148.079C482.223 146.929 483.482 146.052 484.958 145.446C486.449 144.824 487.98 144.513 489.549 144.513C492.501 144.513 494.777 144.956 496.378 145.842C497.326 146.37 497.8 147.232 497.8 148.429C497.8 150.589 497.116 151.668 495.749 151.668C494.91 151.668 493.915 151.055 492.765 149.827C491.631 148.6 490.427 147.986 489.153 147.986C487.615 147.986 486.348 148.942 485.354 150.853C484.795 151.94 484.507 153.657 484.492 156.003C484.492 156.034 484.492 156.066 484.492 156.097C484.492 158.35 485.074 160.206 486.24 161.667C487.42 163.143 488.92 163.881 490.738 163.881C491.748 163.881 492.983 163.648 494.443 163.182C495.92 162.716 496.805 162.483 497.1 162.483Z" fill="#FAF9E5"/>
<path d="M464.914 147.567H464.238C463.259 147.567 462.319 148.079 461.418 149.105C460.533 150.115 460.09 151.327 460.09 152.741V153.113C460.09 153.688 460.408 153.976 461.045 153.976L461.278 154.022H462.933L463.05 153.999L466.942 153.766C467.175 153.719 467.33 153.696 467.408 153.696C468.2 153.696 468.597 153.284 468.597 152.461V151.692C468.597 150.651 468.224 149.703 467.478 148.848C466.732 147.994 465.878 147.567 464.914 147.567ZM460.369 158.66C460.369 160.214 461.1 161.558 462.56 162.692C463.648 163.547 465.031 163.974 466.709 163.974C467.47 163.974 468.597 163.757 470.088 163.322C471.595 162.887 472.465 162.669 472.699 162.669C473.398 162.669 473.747 163.05 473.747 163.811C473.747 164.712 472.815 165.629 470.951 166.561C469.102 167.478 467.183 167.936 465.194 167.936H464.168C464.137 167.936 464.098 167.936 464.052 167.936C462.793 167.936 461.511 167.68 460.206 167.167C457.627 166.173 455.794 164.433 454.706 161.947C453.96 160.237 453.587 158.614 453.587 157.076V156.003C453.587 154.434 453.859 152.919 454.403 151.459C455.428 148.709 457.239 146.727 459.833 145.516C461.387 144.801 463.019 144.443 464.728 144.443H465.264C467.796 144.443 469.933 145.228 471.673 146.797C472.59 147.636 473.289 148.646 473.771 149.827C474.268 151.008 474.516 152.212 474.516 153.44C474.516 154.652 473.918 155.452 472.722 155.84C471.044 156.384 467.936 156.656 463.399 156.656C462.187 156.656 461.379 156.811 460.975 157.122C460.571 157.417 460.369 157.93 460.369 158.66Z" fill="#FAF9E5"/>
<path d="M443.216 156.167L443.169 154.885C443.169 152.896 442.61 151.14 441.491 149.617C440.652 148.483 439.534 147.916 438.135 147.916L437.949 147.939C436.597 147.939 435.54 148.475 434.779 149.548C434.297 150.216 434.057 151.342 434.057 152.927L434.01 153.37L433.94 155.421V157.518L433.963 157.751V158.194L433.987 158.427C433.987 158.583 433.987 158.738 433.987 158.893L434.033 159.569L434.08 160.455C434.08 161.745 434.437 162.778 435.152 163.555C435.867 164.332 436.791 164.72 437.925 164.72H438.345C439.868 164.72 441.134 163.873 442.144 162.18C442.874 160.968 443.239 159.142 443.239 156.703V156.423L443.216 156.167ZM434.406 170.71C434.406 171.984 434.748 173.071 435.432 173.973L436.457 174.998C437.016 175.557 437.296 176.024 437.296 176.397C437.296 176.894 436.947 177.236 436.247 177.422C435.564 177.608 434.08 177.702 431.796 177.702L431.19 177.725C428.564 177.725 426.94 177.624 426.319 177.422C425.713 177.22 425.41 176.901 425.41 176.466C425.41 176.296 425.791 175.612 426.552 174.415C427.313 173.219 427.787 171.984 427.974 170.71C428.036 170.29 428.067 166.957 428.067 160.711C428.067 154.465 427.997 151.016 427.857 150.363C427.717 149.695 427.22 149.074 426.365 148.499C425.511 147.908 425.084 147.349 425.084 146.821C425.084 146.292 425.449 145.904 426.179 145.655C428.23 144.972 430.157 144.63 431.959 144.63C432.441 144.63 432.79 144.746 433.008 144.979C433.241 145.197 433.466 145.477 433.684 145.819C433.901 146.16 434.119 146.331 434.336 146.331C434.554 146.331 434.958 146.16 435.548 145.819C436.154 145.477 436.838 145.15 437.599 144.84C438.376 144.513 439.394 144.35 440.652 144.35H441.282C442.4 144.35 443.527 144.653 444.661 145.259C445.811 145.85 446.782 146.634 447.574 147.613C449.175 149.617 449.975 152.111 449.975 155.094C449.975 158.777 448.903 161.776 446.759 164.091C445.64 165.303 444.428 166.157 443.123 166.654C441.818 167.136 440.342 167.377 438.695 167.377C438.679 167.377 438.089 167.315 436.923 167.19L435.921 167.074L435.455 167.004C434.756 167.004 434.406 168.239 434.406 170.71Z" fill="#FAF9E5"/>
<path d="M419.49 145.492C420.189 145.896 420.539 146.751 420.539 148.056C420.539 149.361 420.446 150.223 420.259 150.643C420.073 151.062 419.708 151.272 419.164 151.272C418.294 151.272 417.354 150.643 416.344 149.384C415.349 148.126 414.091 147.497 412.568 147.497C411.698 147.497 411.007 147.722 410.494 148.172C409.981 148.623 409.725 149.12 409.725 149.664C409.725 150.596 410.175 151.373 411.076 151.995C411.511 152.29 412.902 152.935 415.248 153.929C417.61 154.908 419.296 155.926 420.306 156.982C421.331 158.023 421.844 159.445 421.844 161.247C421.844 163.05 421.075 164.619 419.537 165.955C417.998 167.291 416.025 167.96 413.617 167.96H412.382C409.367 167.96 407.107 167.602 405.599 166.888C404.543 166.39 404.015 165.209 404.015 163.345C404.015 161.48 404.364 160.548 405.063 160.548C405.949 160.548 407.044 161.271 408.35 162.716C409.67 164.161 411.1 164.883 412.638 164.883C413.57 164.883 414.355 164.689 414.992 164.3C415.644 163.897 415.971 163.275 415.971 162.436C415.971 161.581 415.52 160.82 414.619 160.152C414.137 159.795 412.832 159.165 410.704 158.264C408.59 157.347 407.083 156.462 406.182 155.607C404.83 154.333 404.154 152.772 404.154 150.923C404.154 149.058 404.947 147.52 406.532 146.308C408.117 145.08 409.965 144.467 412.079 144.467H412.708C416.033 144.467 418.294 144.809 419.49 145.492Z" fill="#FAF9E5"/>
<path d="M392.897 147.1C394.7 145.857 396.238 145.236 397.512 145.236C398.786 145.236 399.649 145.508 400.099 146.052C400.565 146.595 400.798 147.248 400.798 148.009C400.798 148.771 400.589 149.454 400.169 150.06C399.765 150.651 399.299 150.946 398.771 150.946C398.258 150.946 397.543 150.744 396.626 150.34C395.71 149.936 395.003 149.734 394.506 149.734C394.008 149.734 393.449 149.998 392.828 150.526C392.206 151.055 391.771 151.808 391.522 152.787C391.289 153.766 391.173 155.304 391.173 157.402C391.173 159.484 391.32 160.836 391.616 161.457C391.911 162.063 392.517 162.863 393.434 163.858C394.35 164.852 394.809 165.668 394.809 166.305C394.809 167.051 393.006 167.424 389.402 167.424H387.397L386.908 167.4C386.581 167.385 386.247 167.377 385.906 167.377L385.416 167.354C385.09 167.338 384.748 167.33 384.391 167.33C382.759 167.33 381.943 166.981 381.943 166.282C381.943 165.582 382.347 164.875 383.155 164.161C383.979 163.446 384.476 162.801 384.647 162.226C384.833 161.651 384.927 159.678 384.927 156.306C384.927 152.935 384.818 150.915 384.6 150.247C384.398 149.579 383.893 149.011 383.085 148.545C382.293 148.064 381.897 147.566 381.897 147.054C381.897 146.339 382.433 145.834 383.505 145.539C385.121 145.104 386.581 144.886 387.887 144.886C389.192 144.886 390.07 145.034 390.52 145.329C390.707 145.453 390.916 145.85 391.149 146.518C391.398 147.186 391.686 147.52 392.012 147.52C392.152 147.52 392.447 147.38 392.897 147.1Z" fill="#FAF9E5"/>
<path d="M368.612 147.567H367.936C366.957 147.567 366.017 148.079 365.116 149.105C364.231 150.115 363.788 151.327 363.788 152.741V153.113C363.788 153.688 364.106 153.976 364.743 153.976L364.976 154.022H366.631L366.748 153.999L370.64 153.766C370.873 153.719 371.028 153.696 371.106 153.696C371.898 153.696 372.295 153.284 372.295 152.461V151.692C372.295 150.651 371.922 149.703 371.176 148.848C370.43 147.994 369.576 147.567 368.612 147.567ZM364.067 158.66C364.067 160.214 364.798 161.558 366.258 162.692C367.346 163.547 368.729 163.974 370.407 163.974C371.168 163.974 372.295 163.757 373.786 163.322C375.293 162.887 376.163 162.669 376.397 162.669C377.096 162.669 377.445 163.05 377.445 163.811C377.445 164.712 376.513 165.629 374.649 166.561C372.8 167.478 370.881 167.936 368.892 167.936H367.866C367.835 167.936 367.796 167.936 367.75 167.936C366.491 167.936 365.209 167.68 363.904 167.167C361.325 166.173 359.492 164.433 358.404 161.947C357.658 160.237 357.285 158.614 357.285 157.076V156.003C357.285 154.434 357.557 152.919 358.101 151.459C359.126 148.709 360.937 146.727 363.531 145.516C365.085 144.801 366.717 144.443 368.426 144.443H368.962C371.494 144.443 373.631 145.228 375.371 146.797C376.288 147.636 376.987 148.646 377.469 149.827C377.966 151.008 378.214 152.212 378.214 153.44C378.214 154.652 377.616 155.452 376.42 155.84C374.742 156.384 371.634 156.656 367.097 156.656C365.885 156.656 365.077 156.811 364.673 157.122C364.269 157.417 364.067 157.93 364.067 158.66Z" fill="#FAF9E5"/>
<path d="M346.914 156.167L346.867 154.885C346.867 152.896 346.308 151.14 345.189 149.617C344.35 148.483 343.231 147.916 341.833 147.916L341.647 147.939C340.295 147.939 339.238 148.475 338.477 149.548C337.995 150.216 337.754 151.342 337.754 152.927L337.708 153.37L337.638 155.421V157.518L337.661 157.751V158.194L337.685 158.427C337.685 158.583 337.685 158.738 337.685 158.893L337.731 159.569L337.778 160.455C337.778 161.745 338.135 162.778 338.85 163.555C339.565 164.332 340.489 164.72 341.623 164.72H342.043C343.566 164.72 344.832 163.873 345.842 162.18C346.572 160.968 346.937 159.142 346.937 156.703V156.423L346.914 156.167ZM338.104 170.71C338.104 171.984 338.446 173.071 339.13 173.973L340.155 174.998C340.714 175.557 340.994 176.024 340.994 176.397C340.994 176.894 340.644 177.236 339.945 177.422C339.262 177.608 337.778 177.702 335.494 177.702L334.888 177.725C332.262 177.725 330.638 177.624 330.017 177.422C329.411 177.22 329.108 176.901 329.108 176.466C329.108 176.296 329.488 175.612 330.25 174.415C331.011 173.219 331.485 171.984 331.671 170.71C331.734 170.29 331.765 166.957 331.765 160.711C331.765 154.465 331.695 151.016 331.555 150.363C331.415 149.695 330.918 149.074 330.063 148.499C329.209 147.908 328.781 147.349 328.781 146.821C328.781 146.292 329.147 145.904 329.877 145.655C331.928 144.972 333.855 144.63 335.657 144.63C336.139 144.63 336.488 144.746 336.706 144.979C336.939 145.197 337.164 145.477 337.382 145.819C337.599 146.16 337.817 146.331 338.034 146.331C338.252 146.331 338.656 146.16 339.246 145.819C339.852 145.477 340.536 145.15 341.297 144.84C342.074 144.513 343.092 144.35 344.35 144.35H344.979C346.098 144.35 347.225 144.653 348.359 145.259C349.509 145.85 350.48 146.634 351.272 147.613C352.873 149.617 353.673 152.111 353.673 155.094C353.673 158.777 352.601 161.776 350.456 164.091C349.338 165.303 348.126 166.157 346.821 166.654C345.515 167.136 344.039 167.377 342.392 167.377C342.377 167.377 341.786 167.315 340.621 167.19L339.619 167.074L339.153 167.004C338.454 167.004 338.104 168.239 338.104 170.71Z" fill="#FAF9E5"/>
<path d="M306.011 147.1C307.814 145.857 309.352 145.236 310.626 145.236C311.9 145.236 312.762 145.508 313.213 146.052C313.679 146.595 313.912 147.248 313.912 148.009C313.912 148.771 313.702 149.454 313.283 150.06C312.879 150.651 312.413 150.946 311.884 150.946C311.372 150.946 310.657 150.744 309.74 150.34C308.823 149.936 308.117 149.734 307.619 149.734C307.122 149.734 306.563 149.998 305.941 150.526C305.32 151.055 304.885 151.808 304.636 152.787C304.403 153.766 304.287 155.304 304.287 157.402C304.287 159.484 304.434 160.836 304.729 161.457C305.025 162.063 305.631 162.863 306.547 163.858C307.464 164.852 307.922 165.668 307.922 166.305C307.922 167.051 306.12 167.424 302.515 167.424H300.511L300.021 167.4C299.695 167.385 299.361 167.377 299.019 167.377L298.53 167.354C298.204 167.338 297.862 167.33 297.504 167.33C295.873 167.33 295.057 166.981 295.057 166.282C295.057 165.582 295.461 164.875 296.269 164.161C297.093 163.446 297.59 162.801 297.761 162.226C297.947 161.651 298.04 159.678 298.04 156.306C298.04 152.935 297.932 150.915 297.714 150.247C297.512 149.579 297.007 149.011 296.199 148.545C295.407 148.064 295.011 147.566 295.011 147.054C295.011 146.339 295.547 145.834 296.619 145.539C298.235 145.104 299.695 144.886 301 144.886C302.305 144.886 303.183 145.034 303.634 145.329C303.82 145.453 304.03 145.85 304.263 146.518C304.512 147.186 304.799 147.52 305.126 147.52C305.265 147.52 305.561 147.38 306.011 147.1Z" fill="#FAF9E5"/>
<path d="M291.445 165.676C291.445 166.934 289.666 167.563 286.107 167.563C285.051 167.563 284.328 167.416 283.94 167.121C283.552 166.825 283.233 166.437 282.984 165.955C282.736 165.458 282.526 165.209 282.355 165.209C282.2 165.209 281.726 165.466 280.933 165.979C280.141 166.476 279.294 166.919 278.393 167.307C277.507 167.695 276.342 167.89 274.897 167.89C273.452 167.89 272.225 167.579 271.215 166.957C270.22 166.336 269.436 165.435 268.861 164.254C268.301 163.073 268.022 160.408 268.022 156.26C268.022 152.111 267.928 149.843 267.742 149.454C267.571 149.066 267.074 148.685 266.25 148.312C265.427 147.939 265.015 147.481 265.015 146.937C265.015 146.191 265.481 145.694 266.414 145.446C267.859 145.057 269.653 144.863 271.797 144.863C272.823 144.863 273.491 145.306 273.802 146.191C274.112 147.077 274.268 149.548 274.268 153.603C274.268 157.658 274.4 160.214 274.664 161.271C275.021 162.731 275.806 163.601 277.018 163.881C277.329 163.959 277.647 163.998 277.974 163.998C278.533 163.998 279.108 163.889 279.698 163.671C280.662 163.329 281.384 162.824 281.866 162.156C282.363 161.473 282.612 159.732 282.612 156.936C282.612 154.139 282.472 152.166 282.192 151.016C281.912 149.866 281.516 148.903 281.003 148.126C280.491 147.349 280.234 146.797 280.234 146.471C280.234 145.383 282.239 144.84 286.247 144.84H286.9C287.708 144.84 288.252 145.003 288.531 145.329C288.827 145.64 288.974 146.448 288.974 147.753L288.881 151.132L288.858 151.832V155.281C288.858 158.699 288.951 160.812 289.137 161.62C289.324 162.428 289.751 163.275 290.419 164.161C291.103 165.046 291.445 165.551 291.445 165.676Z" fill="#FAF9E5"/>
<path d="M250.286 147.473H249.843C248.507 147.473 247.411 148.227 246.557 149.734C245.718 151.241 245.298 153.044 245.298 155.141V156.446C245.298 158.808 245.787 160.805 246.766 162.436C247.745 164.067 248.918 164.883 250.286 164.883H250.728C251.925 164.883 252.966 164.277 253.851 163.065C254.753 161.838 255.203 160.206 255.203 158.171L255.25 157.681L255.273 156.703V156.446L255.25 156.19V155.7C255.219 155.359 255.203 155.11 255.203 154.955C255.203 152.888 254.714 151.125 253.735 149.664C252.756 148.204 251.606 147.473 250.286 147.473ZM250.309 144.374H251.474C252.857 144.374 254.279 144.7 255.739 145.352C258.521 146.595 260.432 148.615 261.473 151.412C262.001 152.857 262.265 154.333 262.265 155.84V156.26C262.265 157.876 261.939 159.461 261.286 161.014C260.634 162.568 259.756 163.858 258.653 164.883C256.353 166.965 253.712 168.006 250.728 168.006C250.495 168.006 250.262 167.998 250.029 167.983C248.538 167.983 247.069 167.688 245.624 167.097C244.195 166.491 243.022 165.691 242.105 164.697C240.132 162.521 239.145 159.795 239.145 156.516V156.12L239.168 155.724C239.184 154.279 239.456 152.849 239.984 151.435C241.01 148.732 242.89 146.735 245.624 145.446C247.163 144.731 248.724 144.374 250.309 144.374Z" fill="#FAF9E5"/>
<path d="M233.458 144.933C235.571 144.933 236.628 145.484 236.628 146.588C236.628 146.992 236.271 147.582 235.556 148.359C234.857 149.12 234.282 149.967 233.831 150.899C233.396 151.816 231.788 155.677 229.007 162.483C226.241 169.273 224.478 173.289 223.716 174.532C222.287 176.832 220.36 177.981 217.936 177.981C217.02 177.981 216.142 177.741 215.303 177.259C214.464 176.793 214.044 176.202 214.044 175.488C214.044 174.773 214.308 174.175 214.837 173.693C215.38 173.227 216.095 172.994 216.981 172.994C218.426 172.994 219.607 172.497 220.523 171.502C221.44 170.523 221.898 169.482 221.898 168.379C221.898 167.276 221.626 166.103 221.083 164.86C217.276 156.19 215.248 151.606 215 151.109C214.751 150.612 214.161 149.851 213.228 148.825C212.312 147.8 211.853 146.898 211.853 146.122C211.853 145.345 214.021 144.956 218.356 144.956C219.754 144.956 220.718 145.042 221.246 145.213C221.79 145.368 222.062 145.826 222.062 146.588C222.062 146.867 221.953 147.232 221.735 147.683C221.533 148.118 221.432 148.553 221.432 148.988C221.432 149.408 221.813 150.845 222.574 153.3C223.336 155.755 223.996 157.518 224.555 158.59C225.115 159.663 225.464 160.199 225.604 160.199C226.101 160.199 227.127 157.969 228.681 153.51C229.131 152.22 229.356 150.697 229.356 148.942C229.356 148.538 229.224 148.11 228.96 147.66C228.712 147.209 228.587 146.813 228.587 146.471C228.587 146.114 228.766 145.772 229.123 145.446C229.481 145.104 230.685 144.933 232.736 144.933H233.458Z" fill="#FAF9E5"/>
<path d="M187.195 147.567H186.519C185.54 147.567 184.6 148.079 183.699 149.105C182.814 150.115 182.371 151.327 182.371 152.741V153.113C182.371 153.688 182.689 153.976 183.326 153.976L183.559 154.022H185.214L185.331 153.999L189.223 153.766C189.456 153.719 189.611 153.696 189.689 153.696C190.481 153.696 190.878 153.284 190.878 152.461V151.692C190.878 150.651 190.505 149.703 189.759 148.848C189.013 147.994 188.158 147.567 187.195 147.567ZM182.65 158.66C182.65 160.214 183.381 161.558 184.841 162.692C185.929 163.547 187.312 163.974 188.99 163.974C189.751 163.974 190.878 163.757 192.369 163.322C193.876 162.887 194.746 162.669 194.979 162.669C195.679 162.669 196.028 163.05 196.028 163.811C196.028 164.712 195.096 165.629 193.231 166.561C191.383 167.478 189.464 167.936 187.475 167.936H186.449C186.418 167.936 186.379 167.936 186.333 167.936C185.074 167.936 183.792 167.68 182.487 167.167C179.908 166.173 178.075 164.433 176.987 161.947C176.241 160.237 175.868 158.614 175.868 157.076V156.003C175.868 154.434 176.14 152.919 176.684 151.459C177.709 148.709 179.52 146.727 182.114 145.516C183.668 144.801 185.3 144.443 187.009 144.443H187.545C190.077 144.443 192.214 145.228 193.954 146.797C194.871 147.636 195.57 148.646 196.052 149.827C196.549 151.008 196.797 152.212 196.797 153.44C196.797 154.652 196.199 155.452 195.003 155.84C193.325 156.384 190.217 156.656 185.68 156.656C184.468 156.656 183.66 156.811 183.256 157.122C182.852 157.417 182.65 157.93 182.65 158.66Z" fill="#FAF9E5"/>
<path d="M163.143 151.529L163.096 150.736C163.096 149.54 162.77 148.53 162.117 147.706C161.48 146.867 160.727 146.448 159.857 146.448H159.577C158.785 146.448 158.085 146.906 157.479 147.823C156.873 148.724 156.571 149.796 156.571 151.039V152.228C156.571 153.719 156.92 154.97 157.619 155.98C158.334 156.99 159.111 157.495 159.95 157.495H160.113C160.905 157.495 161.597 157.114 162.187 156.353C162.793 155.576 163.096 154.683 163.096 153.673L163.12 153.533L163.143 153.37L163.166 152.88V151.692L163.143 151.529ZM164.425 167.657C163.679 167.532 163.026 167.47 162.467 167.47L162.281 167.447L162.117 167.424L161.069 167.354C160.944 167.338 160.836 167.33 160.742 167.33L159.973 167.26H159.461L159.297 167.284L158.808 167.307L158.179 167.377C157.433 167.377 156.757 167.703 156.151 168.356C155.545 169.024 155.242 169.816 155.242 170.733V171.222C155.242 172.217 155.623 172.978 156.384 173.507C157.161 174.05 158.14 174.322 159.321 174.322H160.346C162.335 174.322 164.075 173.778 165.567 172.691C166.499 172.007 166.965 171.044 166.965 169.801L166.942 169.638C166.942 169.156 166.732 168.705 166.313 168.286C165.893 167.866 165.264 167.657 164.425 167.657ZM172.349 145.399C172.644 145.694 172.792 146.16 172.792 146.797C172.792 147.434 172.481 147.893 171.86 148.172C170.803 148.639 170.244 148.934 170.181 149.058C169.995 149.415 169.902 149.99 169.902 150.783L169.925 151.389C169.972 152.026 169.995 152.492 169.995 152.787C169.995 153.797 169.739 154.784 169.226 155.747C167.828 158.42 165.248 159.981 161.488 160.432C159.826 160.634 158.963 160.742 158.901 160.758C157.922 161.084 157.433 161.574 157.433 162.226C157.433 162.801 157.744 163.197 158.365 163.415C158.987 163.617 160.704 163.811 163.516 163.998C166.344 164.184 168.247 164.541 169.226 165.07C170.22 165.598 170.935 166.212 171.37 166.911C171.821 167.594 172.046 168.558 172.046 169.801C172.046 171.044 171.689 172.178 170.974 173.204C169.513 175.301 167.214 176.785 164.075 177.655C162.521 178.09 160.905 178.308 159.227 178.308H158.505C155.646 178.308 153.455 177.772 151.933 176.699C150.425 175.643 149.672 174.346 149.672 172.807C149.672 171.782 150.006 170.803 150.674 169.871C150.798 169.7 151.125 169.319 151.653 168.729C152.197 168.138 152.469 167.688 152.469 167.377C152.469 167.346 152.189 166.942 151.63 166.165C151.07 165.373 150.791 164.58 150.791 163.788C150.791 162.995 151.21 162.055 152.049 160.968C152.888 159.88 153.308 159.266 153.308 159.126C153.308 158.987 152.896 158.466 152.072 157.565C151.264 156.633 150.674 155.498 150.301 154.162C150.177 153.712 150.115 153.245 150.115 152.764C150.115 152.717 150.115 152.663 150.115 152.601C150.115 151.715 150.293 150.822 150.651 149.92C151.241 148.429 152.197 147.279 153.517 146.471C155.335 145.337 157.448 144.77 159.857 144.77H160.556C160.68 144.77 161.597 144.832 163.306 144.956L164.565 145.096C165.264 145.174 165.668 145.213 165.777 145.213L170.834 144.933C171.564 144.933 172.069 145.088 172.349 145.399Z" fill="#FAF9E5"/>
<path d="M146.968 165.815C146.968 166.39 146.494 166.818 145.547 167.097C144.614 167.361 143.037 167.493 140.815 167.493C138.609 167.493 137.288 167.338 136.853 167.027C136.418 166.717 136.201 166.351 136.201 165.932C136.201 165.497 136.395 164.844 136.783 163.974C137.187 163.104 137.436 162.405 137.529 161.877C137.622 161.348 137.669 159.562 137.669 156.516C137.669 153.471 137.405 151.397 136.877 150.293C136.364 149.175 135.346 148.615 133.823 148.615C132.301 148.615 131.066 149.276 130.118 150.596C129.481 151.482 129.162 153.106 129.162 155.467C129.162 159.367 129.52 162.226 130.234 164.044C130.669 165.101 130.887 165.784 130.887 166.095C130.887 166.686 130.53 167.058 129.815 167.214C129.1 167.354 127.546 167.424 125.153 167.424C122.776 167.424 121.339 167.268 120.842 166.957C120.345 166.631 120.096 166.196 120.096 165.652C120.096 165.108 120.508 164.565 121.331 164.021C122.155 163.477 122.621 162.988 122.73 162.553C122.838 162.102 122.893 160.129 122.893 156.633C122.893 153.121 122.776 151.07 122.543 150.48C122.31 149.874 121.844 149.175 121.145 148.382C120.446 147.59 120.096 147.186 120.096 147.17V146.681C120.096 146.417 120.29 146.176 120.679 145.958C122.03 145.181 124.043 144.793 126.715 144.793C127.461 144.793 128.082 145.158 128.58 145.888C129.092 146.619 129.465 146.984 129.698 146.984C129.931 146.984 130.475 146.735 131.33 146.238C132.2 145.725 132.674 145.453 132.751 145.422C133.994 144.847 135.152 144.56 136.224 144.56H136.97C139.689 144.56 141.631 145.648 142.796 147.823C143.542 149.237 143.915 152.632 143.915 158.008C143.915 160.882 144.008 162.521 144.195 162.925C144.381 163.329 144.886 163.796 145.71 164.324C146.549 164.837 146.968 165.334 146.968 165.815Z" fill="#FAF9E5"/>
<path d="M107.487 157.915C107.487 157.215 107.27 156.866 106.835 156.866H106.229C105.84 156.943 105.545 156.982 105.343 156.982C103.929 156.982 102.741 157.394 101.777 158.218C100.814 159.041 100.332 159.973 100.332 161.014V161.55C100.332 162.343 100.581 163.026 101.078 163.601C101.575 164.176 102.181 164.464 102.896 164.464H103.642C104.667 164.464 105.545 164.145 106.275 163.508C107.006 162.871 107.371 162.25 107.371 161.644C107.433 161.333 107.464 161.131 107.464 161.038L107.511 160.665V159.663L107.534 159.29V158.264C107.503 158.109 107.487 157.992 107.487 157.915ZM116.95 165.303V165.652C116.95 166.181 116.367 166.678 115.202 167.144C114.036 167.594 112.654 167.82 111.053 167.82C110.074 167.82 109.227 167.377 108.513 166.491C108.124 165.994 107.821 165.745 107.604 165.745C107.386 165.73 107.013 165.909 106.485 166.282C104.714 167.493 102.803 168.099 100.752 168.099C100.736 168.099 100.721 168.107 100.705 168.123C98.6852 168.123 97.0693 167.602 95.8574 166.561C94.6454 165.52 94.0317 164.06 94.0162 162.18C94.0162 158.14 97.1237 155.599 103.339 154.558C104.83 154.325 105.724 154.147 106.019 154.022C106.92 153.649 107.371 152.818 107.371 151.529C107.371 150.239 107.076 149.314 106.485 148.755C105.91 148.18 105.234 147.893 104.457 147.893C103.23 147.893 102.119 148.553 101.125 149.874C100.13 151.179 98.9727 151.832 97.652 151.832C96.8751 151.832 96.2847 151.622 95.8807 151.202C95.4922 150.767 95.298 150.324 95.298 149.874C95.298 148.507 96.0128 147.419 97.4422 146.611C99.8195 145.275 102.337 144.607 104.993 144.607H106.205C107.542 144.607 108.816 144.894 110.028 145.469C111.255 146.028 112.203 146.891 112.871 148.056C113.539 149.221 113.873 151.824 113.873 155.864C113.873 159.903 113.998 162.234 114.246 162.856C114.51 163.461 115.023 163.912 115.784 164.207C116.561 164.487 116.95 164.852 116.95 165.303Z" fill="#FAF9E5"/>
<path d="M91.0562 165.955C91.0562 166.686 90.5357 167.167 89.4947 167.4C88.4537 167.618 86.9699 167.727 85.0432 167.727C83.1165 167.727 81.8658 167.602 81.2909 167.354C80.716 167.105 80.4285 166.686 80.4285 166.095C80.4285 165.846 80.6305 165.342 81.0345 164.58C81.4385 163.819 81.7181 163.182 81.8735 162.669C82.0289 162.141 82.1066 160.253 82.1066 157.006C82.1066 153.758 81.8347 151.567 81.2909 150.433C80.747 149.283 79.7138 148.709 78.1911 148.709C76.684 148.709 75.5264 149.221 74.7185 150.247C73.926 151.257 73.5298 153.106 73.5298 155.794C73.5298 156.679 73.6386 158.047 73.8561 159.896C74.0736 161.745 74.3844 163.151 74.7884 164.114C75.1924 165.077 75.3943 165.606 75.3943 165.699C75.3943 166.398 74.9748 166.841 74.1358 167.027C72.9083 167.291 71.0516 167.424 68.5656 167.424C66.0951 167.424 64.8598 167.043 64.8598 166.282C64.8598 165.738 65.2172 164.961 65.9319 163.951C66.6622 162.941 67.074 162.063 67.1672 161.317C67.2759 160.571 67.3303 156.842 67.3303 150.13C67.3303 143.418 67.2216 139.65 67.004 138.827C66.802 138.003 66.468 137.382 66.0019 136.962C64.8987 135.968 64.3471 135.408 64.3471 135.284C64.3471 134.647 64.6812 134.189 65.3493 133.909C66.7787 133.303 68.6743 133 71.036 133C72.1703 133 72.9006 133.412 73.2268 134.235C73.4288 134.748 73.5298 136.745 73.5298 140.225C73.5298 143.69 73.5609 145.531 73.6231 145.749C73.7784 146.292 74.097 146.564 74.5786 146.564C74.7806 146.564 75.2234 146.409 75.9071 146.098C77.8027 145.228 79.5273 144.793 81.0811 144.793C83.8934 144.793 85.8822 145.904 87.0475 148.126C87.8866 149.726 88.3061 152.461 88.3061 156.33C88.3061 160.199 88.4149 162.389 88.6324 162.902C88.8499 163.415 89.3083 164.005 90.0075 164.673C90.7066 165.342 91.0562 165.769 91.0562 165.955Z" fill="#FAF9E5"/>
<path d="M60.2219 141.087C60.2219 142.657 59.7635 143.441 58.8468 143.441C58.4428 143.441 57.4795 142.835 55.9568 141.623C54.4341 140.411 53.1678 139.572 52.1579 139.106C51.1479 138.625 49.9904 138.384 48.6852 138.384C48.6541 138.384 48.6308 138.384 48.6153 138.384C47.3567 138.384 46.1526 138.718 45.0028 139.386C41.771 141.266 40.1551 145.306 40.1551 151.505C40.1551 153.277 40.4347 155.001 40.9941 156.679C42.6255 161.636 45.7486 164.114 50.3633 164.114C50.3788 164.114 50.3943 164.114 50.4099 164.114C52.523 164.114 54.7138 163.322 56.9823 161.737C58.4428 160.727 59.2819 160.222 59.4994 160.222C60.2607 160.222 60.6414 160.579 60.6414 161.294V161.877C60.6414 162.234 60.2763 162.956 59.546 164.044C58.8313 165.132 57.8679 165.955 56.656 166.515C54.5429 167.493 52.0569 167.983 49.1979 167.983H48.4055C46.1215 167.983 44.0239 167.563 42.1128 166.724C38.3061 165.046 35.6647 162.273 34.1886 158.404C33.3962 156.337 33 154.325 33 152.368V150.736C33 148.794 33.3807 146.813 34.142 144.793C35.7113 140.613 38.3993 137.7 42.206 136.053C44.2104 135.183 46.1914 134.748 48.1492 134.748H48.9183C53.8282 134.748 57.0755 135.214 58.6603 136.146C59.7014 136.752 60.2219 138.399 60.2219 141.087Z" fill="#FAF9E5"/>
<path fill-rule="evenodd" clip-rule="evenodd" d="M557.206 0.0881426C557.626 -0.0162046 558.063 -0.0280577 558.488 0.0534045L582.92 4.73944C583.734 4.89566 584.447 5.38389 584.887 6.08698L599.546 29.5171C599.921 30.1164 600.071 30.8294 599.969 31.5289L594.105 71.8288C593.959 72.8317 593.314 73.6919 592.392 74.1129L510.302 111.601C509.56 111.94 508.71 111.96 507.952 111.656C507.195 111.352 506.594 110.751 506.292 109.992L480.883 46.2623C480.501 45.3027 480.642 44.2134 481.256 43.3829L502.756 14.3295C503.168 13.7724 503.762 13.3763 504.434 13.209L557.206 0.0881426ZM558.009 6.03669L524.126 14.4611L557.324 16.8194L573.131 8.93707L558.009 6.03669ZM581.265 11.5476L566.113 19.104L590.357 26.0791L581.265 11.5476ZM590.971 32.4641L559.394 23.3794L519.923 95.3004L590.971 32.4641ZM511.594 98.0762L553.071 22.4988L508.275 19.3166L511.594 98.0762ZM502.529 24.6666L487.041 45.5963L505.345 91.5065L502.529 24.6666ZM526.041 97.8548L588.435 69.361L592.892 38.7301L526.041 97.8548Z" fill="#FAF9E5"/>
</svg>
