<svg width="40" height="26" viewBox="0 0 40 26" fill="none" xmlns="http://www.w3.org/2000/svg">
<path fill-rule="evenodd" clip-rule="evenodd" d="M7.18539 24.6605H0.668941C1.70808 22.2907 1.72395 20.9799 0.668941 18.6095C-0.230106 16.3203 -0.215826 14.9902 0.668941 12.5586C1.24945 9.75557 0.668941 5.57683 0.668941 5.57683C0.668941 5.57683 0.420299 2.45588 1.13447 0.456826H9.51269L15.0982 14.4205L21.1491 0.456826C21.1491 0.456826 27.6654 -0.571059 34.6473 0.456867C41.6291 1.48479 40.6982 12.0933 35.5782 12.0933C41.1636 12.0933 42.0945 23.7296 34.6473 24.6605C27.2 25.5914 22.5454 24.6605 22.5454 24.6605C21.9695 23.455 21.8826 22.7515 22.5454 21.4023C23.2507 20.1299 23.1244 19.4815 22.5454 18.144C21.9159 16.6896 21.818 14.9991 22.5454 13.6113C23.1111 12.5322 22.9786 11.905 22.7505 10.8248C22.6853 10.5159 22.6122 10.17 22.5454 9.7659L16.96 24.6605H13.2363L7.18539 9.7659V24.6605ZM27.9273 20.2214V15.1014C27.9273 15.1014 31.6509 14.636 33.0473 15.1014C34.4437 15.5669 34.9091 19.2905 33.0473 20.2214C31.1855 21.1523 27.9273 20.2214 27.9273 20.2214ZM27.9273 4.86142V9.51595C27.9273 9.51595 30.72 9.98141 32.1164 9.51595C33.5128 9.05051 33.9782 5.32687 32.1164 4.86142C30.2546 4.39596 27.9273 4.86142 27.9273 4.86142Z" fill="black"/>
</svg>
