<svg width="894" height="829" viewBox="0 0 894 829" fill="none" xmlns="http://www.w3.org/2000/svg">
<path fill-rule="evenodd" clip-rule="evenodd" d="M509.312 32.1273C404.452 62.6685 293.748 127.228 199.777 220.212C109.497 309.543 50.5721 409.366 26.2976 501.584C1.99458 593.911 12.5671 677.892 59.9688 736.418L49.6192 742.846C-0.688095 680.734 -10.9028 593.057 13.8767 498.92C38.6848 404.675 98.7124 303.228 190.202 212.7C285.423 118.48 397.925 52.7111 505.165 21.4767C612.279 -9.72116 715.07 -6.67495 789.72 38.1904L782.622 47.4241C712.502 5.28078 614.298 1.54948 509.312 32.1273ZM869.647 323.487C893.289 230.063 881.008 145.514 830.782 87.6387L840.878 80.9068C894.244 142.401 906.202 230.783 882.091 326.058C857.953 421.445 797.52 524.506 704.72 616.33C609.773 710.28 497.644 775.941 390.683 807.283C283.848 838.589 181.252 835.867 106.492 791.61L113.515 782.331C183.752 823.912 281.797 827.324 386.514 796.639C491.107 765.991 601.444 701.535 695.145 608.819C786.721 518.205 846.033 416.799 869.647 323.487Z" fill="#42406F"/>
<path d="M809.813 10.2674L820.235 53.8707L872.09 64.0876L819.915 72.5147L807.998 115.734L797.576 72.1304L745.721 61.9135L797.896 53.4864L809.813 10.2674Z" fill="#42406F"/>
<path d="M83.2633 712.054L93.686 755.657L145.541 765.874L93.3653 774.301L81.4488 817.52L71.026 773.917L19.1712 763.7L71.3468 755.273L83.2633 712.054Z" fill="#42406F"/>
</svg>
